<svg width="30" height="30" viewBox="0 0 30 30" fill="none" xmlns="http://www.w3.org/2000/svg">
<path d="M21.1583 21.2081C20.9736 21.0883 20.749 21.0465 20.5335 21.0917C20.318 21.137 20.1292 21.2657 20.0083 21.4498C18.8333 23.2498 16.675 25.4581 14.75 26.1998C12.825 26.9414 11.3167 26.6748 10.7167 26.1998C10.4583 25.9748 9.78333 25.3664 10.3583 23.2914C10.7417 21.9081 13.125 15.3914 13.6917 13.8081L11.875 14.0414C11.3 15.5914 9.13332 21.4081 8.74166 22.8581C8.17499 24.9331 8.45833 26.4414 9.64999 27.4914C10.4826 28.0756 11.4836 28.3712 12.5 28.3331C13.4862 28.3189 14.4612 28.1211 15.375 27.7498C17.7 26.8414 20.1417 24.3164 21.425 22.3581C21.4832 22.2651 21.5224 22.1616 21.5405 22.0534C21.5586 21.9453 21.5552 21.8346 21.5304 21.7277C21.5056 21.6209 21.46 21.52 21.3962 21.4308C21.3323 21.3417 21.2515 21.266 21.1583 21.2081Z" fill="#DDDDDD"/>
<path d="M16.0833 9.16651C16.8249 9.16651 17.55 8.94657 18.1666 8.53452C18.7833 8.12246 19.264 7.53679 19.5478 6.85157C19.8316 6.16635 19.9059 5.41235 19.7612 4.68492C19.6165 3.95749 19.2593 3.2893 18.7349 2.76485C18.2105 2.24041 17.5423 1.88326 16.8148 1.73856C16.0874 1.59387 15.3334 1.66813 14.6482 1.95196C13.963 2.23579 13.3773 2.71643 12.9652 3.33312C12.5532 3.9498 12.3333 4.67483 12.3333 5.41651C12.3333 6.41107 12.7283 7.36489 13.4316 8.06816C14.1349 8.77142 15.0887 9.16651 16.0833 9.16651ZM16.0833 3.33317C16.4953 3.33317 16.8981 3.45536 17.2407 3.68428C17.5833 3.9132 17.8503 4.23857 18.008 4.61925C18.1657 4.99993 18.2069 5.41882 18.1266 5.82294C18.0462 6.22707 17.8477 6.59829 17.5564 6.88964C17.265 7.181 16.8938 7.37942 16.4897 7.45981C16.0856 7.54019 15.6667 7.49894 15.286 7.34125C14.9053 7.18357 14.5799 6.91655 14.351 6.57394C14.1221 6.23134 13.9999 5.82855 13.9999 5.41651C13.9999 4.86397 14.2194 4.33407 14.6101 3.94337C15.0008 3.55267 15.5307 3.33317 16.0833 3.33317Z" fill="#DDDDDD"/>
<path d="M9.84172 12.4999C9.89172 12.4999 15.0667 11.8166 16.2834 11.6666C16.825 11.5833 17.2334 11.6666 17.3667 11.7916C17.5 11.9166 17.5417 12.4583 17.3084 13.1916C16.8 14.7416 14.2334 22.3583 13.4834 24.6166C13.85 24.5414 14.2096 24.4355 14.5584 24.2999C14.892 24.1619 15.2127 23.9946 15.5167 23.7999C16.5417 20.8333 18.4584 15.0833 18.8917 13.7666C19.325 12.4499 19.2167 11.4499 18.6417 10.7666C18.3137 10.434 17.9031 10.1947 17.4521 10.0731C17.001 9.95158 16.5258 9.9522 16.075 10.0749C14.8834 10.1999 9.85005 10.8583 9.63338 10.9083C9.41237 10.937 9.21182 11.0523 9.07586 11.2289C8.93989 11.4055 8.87965 11.6289 8.90838 11.8499C8.93711 12.0709 9.05247 12.2715 9.22906 12.4074C9.40566 12.5434 9.62904 12.6037 9.85005 12.5749L9.84172 12.4999Z" fill="#DDDDDD"/>
</svg>
