<svg width="30" height="30" viewBox="0 0 30 30" fill="none" xmlns="http://www.w3.org/2000/svg">
<path d="M22.4998 22.5C22.9971 22.5 23.474 22.3025 23.8257 21.9508C24.1773 21.5992 24.3748 21.1223 24.3748 20.625V16.0462C24.3748 15.549 24.1773 15.0721 23.8257 14.7204C23.474 14.3688 22.9971 14.1713 22.4998 14.1713H19.8973C19.8973 13.5131 19.9367 12.8531 20.0136 12.195C20.1298 11.4975 20.3248 10.8769 20.5948 10.335C20.8667 9.79125 21.2155 9.36562 21.643 9.05437C22.0686 8.70563 22.6105 8.53125 23.2705 8.53125V5.625C22.1848 5.625 21.2361 5.8575 20.4205 6.3225C19.6119 6.78279 18.9168 7.41835 18.3861 8.1825C17.8534 9.02496 17.4609 9.94818 17.2236 10.9163C16.9845 11.9846 16.8675 13.0765 16.8748 14.1713V20.625C16.8748 21.1223 17.0724 21.5992 17.424 21.9508C17.7756 22.3025 18.2526 22.5 18.7498 22.5H22.4998ZM11.2498 22.5C11.7471 22.5 12.224 22.3025 12.5757 21.9508C12.9273 21.5992 13.1248 21.1223 13.1248 20.625V16.0462C13.1248 15.549 12.9273 15.0721 12.5757 14.7204C12.224 14.3688 11.7471 14.1713 11.2498 14.1713H8.64734C8.64734 13.5131 8.68671 12.8531 8.76359 12.195C8.87984 11.4975 9.07484 10.8769 9.34484 10.335C9.61671 9.79125 9.96546 9.36562 10.393 9.05437C10.8186 8.70563 11.3605 8.53125 12.0205 8.53125V5.625C10.9348 5.625 9.98609 5.8575 9.17046 6.3225C8.36194 6.78279 7.66679 7.41835 7.13609 8.1825C6.60345 9.02496 6.21086 9.94818 5.97359 10.9163C5.7345 11.9846 5.6175 13.0765 5.62484 14.1713V20.625C5.62484 21.1223 5.82238 21.5992 6.17401 21.9508C6.52564 22.3025 7.00256 22.5 7.49984 22.5H11.2498Z" fill="white"/>
</svg>
