<svg width="30" height="30" viewBox="0 0 30 30" fill="none" xmlns="http://www.w3.org/2000/svg">
<path d="M15 2.5C8.1 2.5 2.5 8.1 2.5 15C2.5 21.9 8.1 27.5 15 27.5C21.9 27.5 27.5 21.9 27.5 15C27.5 8.1 21.9 2.5 15 2.5ZM15 25C9.4875 25 5 20.5125 5 15C5 9.4875 9.4875 5 15 5C20.5125 5 25 9.4875 25 15C25 20.5125 20.5125 25 15 25ZM20.2125 18.45L18.8375 17.075C19.725 15.4125 19.5 13.3125 18.1 11.9125C17.6942 11.5034 17.2113 11.1789 16.6791 10.9579C16.147 10.7369 15.5762 10.6237 15 10.625C14.9625 10.625 14.925 10.6375 14.8875 10.6375L16.25 12L14.925 13.325L11.3875 9.7875L14.925 6.25L16.25 7.575L15.05 8.775C16.6375 8.7875 18.2125 9.375 19.425 10.575C21.55 12.7125 21.8125 16.025 20.2125 18.45ZM18.6125 20.2125L15.075 23.75L13.75 22.425L14.9375 21.2375C13.304 21.2248 11.7412 20.5691 10.5875 19.4125C9.57005 18.394 8.93492 17.0558 8.78919 15.6235C8.64346 14.1913 8.99604 12.7526 9.7875 11.55L11.1625 12.925C10.275 14.5875 10.5 16.6875 11.9 18.0875C12.775 18.9625 13.9375 19.3875 15.1 19.35L13.75 18L15.075 16.675L18.6125 20.2125Z" fill="white"/>
</svg>
