<svg width="30" height="30" viewBox="0 0 30 30" fill="none" xmlns="http://www.w3.org/2000/svg">
<path d="M17.8125 16.8752C18.5584 16.8752 19.2738 17.1715 19.8012 17.699C20.3287 18.2264 20.625 18.9418 20.625 19.6877V20.6252C20.625 24.3208 17.1375 28.1252 11.25 28.1252C5.3625 28.1252 1.875 24.3208 1.875 20.6252V19.6877C1.875 18.9418 2.17132 18.2264 2.69876 17.699C3.22621 17.1715 3.94158 16.8752 4.6875 16.8752H17.8125ZM17.8125 18.7502H4.6875C4.43886 18.7502 4.2004 18.849 4.02459 19.0248C3.84877 19.2006 3.75 19.4391 3.75 19.6877V20.6252C3.75 23.3215 6.435 26.2502 11.25 26.2502C16.065 26.2502 18.75 23.3215 18.75 20.6252V19.6877C18.75 19.4391 18.6512 19.2006 18.4754 19.0248C18.2996 18.849 18.0611 18.7502 17.8125 18.7502ZM11.25 4.68771C12.6175 4.68771 13.929 5.23095 14.896 6.19794C15.863 7.16492 16.4062 8.47644 16.4062 9.84396C16.4062 11.2115 15.863 12.523 14.896 13.49C13.929 14.457 12.6175 15.0002 11.25 15.0002C9.88248 15.0002 8.57096 14.457 7.60398 13.49C6.637 12.523 6.09375 11.2115 6.09375 9.84396C6.09375 8.47644 6.637 7.16492 7.60398 6.19794C8.57096 5.23095 9.88248 4.68771 11.25 4.68771ZM11.25 6.56271C10.3798 6.56271 9.54516 6.90841 8.92981 7.52376C8.31445 8.13912 7.96875 8.97372 7.96875 9.84396C7.96875 10.7142 8.31445 11.5488 8.92981 12.1642C9.54516 12.7795 10.3798 13.1252 11.25 13.1252C12.1202 13.1252 12.9548 12.7795 13.5702 12.1642C14.1855 11.5488 14.5312 10.7142 14.5312 9.84396C14.5312 8.97372 14.1855 8.13912 13.5702 7.52376C12.9548 6.90841 12.1202 6.56271 11.25 6.56271ZM20.22 2.04208L20.3512 2.14896L23.4375 5.23708L26.5238 2.14896C26.6998 1.97292 26.9385 1.87402 27.1875 1.87402C27.4365 1.87402 27.6752 1.97292 27.8512 2.14896C28.0273 2.325 28.1262 2.56375 28.1262 2.81271C28.1262 3.06166 28.0273 3.30042 27.8512 3.47646L24.7631 6.56271L27.8512 9.64896C28.0063 9.80431 28.1019 10.0091 28.1214 10.2277C28.1409 10.4463 28.0831 10.6648 27.9581 10.8452L27.8512 10.9765C27.6959 11.1315 27.4911 11.2271 27.2725 11.2466C27.0539 11.2661 26.8354 11.2084 26.655 11.0833L26.5238 10.9765L23.4375 7.88833L20.3512 10.9765C20.1752 11.1525 19.9365 11.2514 19.6875 11.2514C19.4385 11.2514 19.1998 11.1525 19.0238 10.9765C18.8477 10.8004 18.7488 10.5617 18.7488 10.3127C18.7488 10.0638 18.8477 9.825 19.0238 9.64896L22.1119 6.56271L19.0238 3.47646C18.8687 3.3211 18.7731 3.11629 18.7536 2.89769C18.7341 2.6791 18.7919 2.46058 18.9169 2.28021L19.0238 2.14896C19.1593 2.01392 19.3329 1.92357 19.5212 1.89005C19.7096 1.85654 19.9037 1.88145 20.0775 1.96146L20.22 2.04208Z" fill="#DDDDDD"/>
</svg>
