<svg width="20" height="20" viewBox="0 0 20 20" fill="none" xmlns="http://www.w3.org/2000/svg">
<path fill-rule="evenodd" clip-rule="evenodd" d="M13.6041 12.4159L18.0875 16.8992C18.2451 17.0569 18.3335 17.2707 18.3335 17.4936C18.3334 17.7166 18.2447 17.9304 18.0871 18.0879C17.9294 18.2455 17.7155 18.334 17.4926 18.3339C17.2697 18.3339 17.0559 18.2452 16.8983 18.0875L12.415 13.6042C11.0747 14.6423 9.38937 15.1308 7.70174 14.9703C6.01412 14.8099 4.451 14.0125 3.33037 12.7405C2.20975 11.4685 1.61579 9.81737 1.66935 8.12298C1.7229 6.42859 2.41993 4.81824 3.61864 3.61953C4.81735 2.42081 6.4277 1.72378 8.12209 1.67023C9.81648 1.61668 11.4676 2.21063 12.7396 3.33126C14.0117 4.45188 14.809 6.015 14.9694 7.70263C15.1299 9.39025 14.6414 11.0756 13.6033 12.4159H13.6041ZM8.3333 13.3334C9.65938 13.3334 10.9312 12.8066 11.8688 11.8689C12.8065 10.9312 13.3333 9.65944 13.3333 8.33335C13.3333 7.00727 12.8065 5.7355 11.8688 4.79782C10.9312 3.86014 9.65938 3.33335 8.3333 3.33335C7.00722 3.33335 5.73545 3.86014 4.79777 4.79782C3.86009 5.7355 3.3333 7.00727 3.3333 8.33335C3.3333 9.65944 3.86009 10.9312 4.79777 11.8689C5.73545 12.8066 7.00722 13.3334 8.3333 13.3334Z" fill="#A47454"/>
</svg>
