<svg width="30" height="30" viewBox="0 0 30 30" fill="none" xmlns="http://www.w3.org/2000/svg">
<path d="M15 1.875C12.4041 1.875 9.86654 2.64477 7.70815 4.08696C5.54975 5.52916 3.86749 7.579 2.87409 9.97728C1.88069 12.3756 1.62077 15.0146 2.1272 17.5606C2.63363 20.1066 3.88367 22.4452 5.71923 24.2808C7.55479 26.1163 9.89345 27.3664 12.4394 27.8728C14.9854 28.3792 17.6244 28.1193 20.0227 27.1259C22.421 26.1325 24.4709 24.4503 25.913 22.2919C27.3552 20.1335 28.125 17.5959 28.125 15C28.125 11.519 26.7422 8.18064 24.2808 5.71922C21.8194 3.25781 18.481 1.875 15 1.875ZM15 26.25C12.775 26.25 10.5999 25.5902 8.74984 24.354C6.89979 23.1179 5.45785 21.3609 4.60636 19.3052C3.75488 17.2495 3.53209 14.9875 3.96617 12.8052C4.40026 10.6229 5.47171 8.61839 7.04505 7.04505C8.6184 5.47171 10.623 4.40025 12.8052 3.96617C14.9875 3.53208 17.2495 3.75487 19.3052 4.60636C21.3609 5.45784 23.1179 6.89978 24.354 8.74984C25.5902 10.5999 26.25 12.775 26.25 15C26.25 17.9837 25.0647 20.8452 22.955 22.955C20.8452 25.0647 17.9837 26.25 15 26.25Z" fill="#DDDDDD"/>
<path d="M15 23.4375C15.7767 23.4375 16.4062 22.8079 16.4062 22.0312C16.4062 21.2546 15.7767 20.625 15 20.625C14.2233 20.625 13.5938 21.2546 13.5938 22.0312C13.5938 22.8079 14.2233 23.4375 15 23.4375Z" fill="#DDDDDD"/>
<path d="M15.9375 7.50001H14.5313C13.9769 7.49877 13.4278 7.60705 12.9154 7.81863C12.403 8.0302 11.9374 8.3409 11.5454 8.7329C11.1534 9.12489 10.8427 9.59045 10.6311 10.1029C10.4196 10.6153 10.3113 11.1644 10.3125 11.7188V12.1875H12.1875V11.7188C12.1875 11.0972 12.4344 10.501 12.874 10.0615C13.3135 9.62194 13.9097 9.37501 14.5313 9.37501H15.9375C16.5591 9.37501 17.1553 9.62194 17.5948 10.0615C18.0343 10.501 18.2813 11.0972 18.2813 11.7188C18.2813 12.3404 18.0343 12.9365 17.5948 13.376C17.1553 13.8156 16.5591 14.0625 15.9375 14.0625H14.0625V18.2813H15.9375V15.9375C17.0564 15.9375 18.1294 15.493 18.9206 14.7019C19.7118 13.9107 20.1563 12.8376 20.1563 11.7188C20.1563 10.5999 19.7118 9.52682 18.9206 8.73565C18.1294 7.94449 17.0564 7.50001 15.9375 7.50001Z" fill="#DDDDDD"/>
</svg>
