<svg width="35" height="35" viewBox="0 0 35 35" fill="none" xmlns="http://www.w3.org/2000/svg">
<path d="M29.5311 18.3313V17.5V16.6578L31.6311 14.8203C32.0182 14.4791 32.2723 14.0121 32.3483 13.5017C32.4244 12.9913 32.3176 12.4705 32.0468 12.0313L29.4655 7.65627C29.2737 7.32405 28.9979 7.04812 28.6658 6.85615C28.3337 6.66417 27.9569 6.56291 27.5733 6.56252C27.3356 6.5607 27.0992 6.59764 26.8733 6.67189L24.2155 7.56877C23.7566 7.26384 23.278 6.98979 22.7827 6.74846L22.2249 3.99221C22.1249 3.48865 21.8509 3.03631 21.451 2.71438C21.0511 2.39245 20.5507 2.22143 20.0374 2.23127H14.9186C14.4053 2.22143 13.9049 2.39245 13.505 2.71438C13.1051 3.03631 12.8311 3.48865 12.7311 3.99221L12.1733 6.74846C11.6745 6.98974 11.1922 7.26377 10.7296 7.56877L8.12644 6.62814C7.89817 6.56867 7.66179 6.54651 7.42644 6.56252C7.04284 6.56291 6.66608 6.66417 6.33396 6.85615C6.00185 7.04812 5.72606 7.32405 5.53425 7.65627L2.953 12.0313C2.69771 12.4698 2.60284 12.9835 2.68465 13.4844C2.76646 13.9852 3.01986 14.442 3.40144 14.7766L5.46863 16.6688V18.3422L3.40144 20.1797C3.00908 20.5166 2.74875 20.9816 2.66666 21.4921C2.58457 22.0027 2.68602 22.5259 2.953 22.9688L5.53425 27.3438C5.72606 27.676 6.00185 27.9519 6.33396 28.1439C6.66608 28.3359 7.04284 28.4371 7.42644 28.4375C7.66417 28.4393 7.9006 28.4024 8.12644 28.3281L10.7843 27.4313C11.2431 27.7362 11.7218 28.0102 12.2171 28.2516L12.7749 31.0078C12.8749 31.5114 13.1488 31.9637 13.5488 32.2857C13.9487 32.6076 14.4491 32.7786 14.9624 32.7688H20.1249C20.6382 32.7786 21.1386 32.6076 21.5385 32.2857C21.9384 31.9637 22.2124 31.5114 22.3124 31.0078L22.8702 28.2516C23.369 28.0103 23.8513 27.7363 24.3139 27.4313L26.9608 28.3281C27.1867 28.4024 27.4231 28.4393 27.6608 28.4375C28.0444 28.4371 28.4212 28.3359 28.7533 28.1439C29.0854 27.9519 29.3612 27.676 29.553 27.3438L32.0468 22.9688C32.302 22.5302 32.3969 22.0165 32.3151 21.5156C32.2333 21.0148 31.9799 20.558 31.5983 20.2235L29.5311 18.3313ZM27.5733 26.25L23.8218 24.9813C22.9435 25.7251 21.9398 26.3066 20.8577 26.6985L20.0811 30.625H14.9186L14.1421 26.7422C13.0685 26.3392 12.0702 25.7588 11.1889 25.025L7.42644 26.25L4.84519 21.875L7.82019 19.25C7.61795 18.1178 7.61795 16.9588 7.82019 15.8266L4.84519 13.125L7.42644 8.75002L11.178 10.0188C12.0562 9.2749 13.0599 8.69342 14.1421 8.30158L14.9186 4.37502H20.0811L20.8577 8.25783C21.9313 8.66079 22.9296 9.24127 23.8108 9.97502L27.5733 8.75002L30.1546 13.125L27.1796 15.75C27.3818 16.8822 27.3818 18.0413 27.1796 19.1735L30.1546 21.875L27.5733 26.25Z" fill="white"/>
<path d="M17.5 24.0625C16.2021 24.0625 14.9333 23.6776 13.8541 22.9565C12.7749 22.2354 11.9337 21.2105 11.437 20.0114C10.9403 18.8122 10.8104 17.4927 11.0636 16.2197C11.3168 14.9467 11.9418 13.7774 12.8596 12.8596C13.7774 11.9418 14.9467 11.3168 16.2197 11.0636C17.4927 10.8104 18.8122 10.9403 20.0114 11.437C21.2105 11.9337 22.2354 12.7749 22.9565 13.8541C23.6776 14.9333 24.0625 16.2021 24.0625 17.5C24.0713 18.3642 23.9075 19.2215 23.5808 20.0217C23.2541 20.8219 22.7711 21.5488 22.1599 22.1599C21.5488 22.7711 20.8219 23.2541 20.0217 23.5808C19.2215 23.9075 18.3642 24.0713 17.5 24.0625ZM17.5 13.125C16.9218 13.1115 16.3468 13.2155 15.81 13.4306C15.2731 13.6457 14.7854 13.9674 14.3764 14.3764C13.9674 14.7854 13.6457 15.2731 13.4306 15.81C13.2155 16.3468 13.1115 16.9218 13.125 17.5C13.1115 18.0782 13.2155 18.6532 13.4306 19.19C13.6457 19.7269 13.9674 20.2146 14.3764 20.6236C14.7854 21.0326 15.2731 21.3543 15.81 21.5694C16.3468 21.7845 16.9218 21.8885 17.5 21.875C18.0782 21.8885 18.6532 21.7845 19.19 21.5694C19.7269 21.3543 20.2146 21.0326 20.6236 20.6236C21.0326 20.2146 21.3543 19.7269 21.5694 19.19C21.7845 18.6532 21.8885 18.0782 21.875 17.5C21.8885 16.9218 21.7845 16.3468 21.5694 15.81C21.3543 15.2731 21.0326 14.7854 20.6236 14.3764C20.2146 13.9674 19.7269 13.6457 19.19 13.4306C18.6532 13.2155 18.0782 13.1115 17.5 13.125Z" fill="white"/>
</svg>
