<svg width="27" height="26" viewBox="0 0 27 26" fill="none" xmlns="http://www.w3.org/2000/svg">
<path d="M8.75 10.9375H2.1875C1.60752 10.9369 1.05145 10.7063 0.641343 10.2962C0.231233 9.88605 0.000579115 9.32998 0 8.75V2.1875C0.000579115 1.60752 0.231233 1.05145 0.641343 0.641344C1.05145 0.231233 1.60752 0.000579115 2.1875 0H8.75C9.32998 0.000579115 9.88605 0.231233 10.2962 0.641344C10.7063 1.05145 10.9369 1.60752 10.9375 2.1875V8.75C10.9369 9.32998 10.7063 9.88605 10.2962 10.2962C9.88605 10.7063 9.32998 10.9369 8.75 10.9375ZM2.1875 2.1875V8.75H8.75109L8.75 2.1875H2.1875Z" fill="#949494"/>
<path d="M24.75 10.9375H18.1875C17.6075 10.9369 17.0515 10.7063 16.6413 10.2962C16.2312 9.88605 16.0006 9.32998 16 8.75V2.1875C16.0006 1.60752 16.2312 1.05145 16.6413 0.641344C17.0515 0.231233 17.6075 0.000579115 18.1875 0H24.75C25.33 0.000579115 25.886 0.231233 26.2962 0.641344C26.7063 1.05145 26.9369 1.60752 26.9375 2.1875V8.75C26.9369 9.32998 26.7063 9.88605 26.2962 10.2962C25.886 10.7063 25.33 10.9369 24.75 10.9375ZM18.1875 2.1875V8.75H24.7511L24.75 2.1875H18.1875Z" fill="#949494"/>
<path d="M8.75 25.9375H2.1875C1.60752 25.9369 1.05145 25.7063 0.641343 25.2962C0.231233 24.886 0.000579115 24.33 0 23.75V17.1875C0.000579115 16.6075 0.231233 16.0515 0.641343 15.6413C1.05145 15.2312 1.60752 15.0006 2.1875 15H8.75C9.32998 15.0006 9.88605 15.2312 10.2962 15.6413C10.7063 16.0515 10.9369 16.6075 10.9375 17.1875V23.75C10.9369 24.33 10.7063 24.886 10.2962 25.2962C9.88605 25.7063 9.32998 25.9369 8.75 25.9375ZM2.1875 17.1875V23.75H8.75109L8.75 17.1875H2.1875Z" fill="#949494"/>
<path d="M24.75 25.9375H18.1875C17.6075 25.9369 17.0515 25.7063 16.6413 25.2962C16.2312 24.886 16.0006 24.33 16 23.75V17.1875C16.0006 16.6075 16.2312 16.0515 16.6413 15.6413C17.0515 15.2312 17.6075 15.0006 18.1875 15H24.75C25.33 15.0006 25.886 15.2312 26.2962 15.6413C26.7063 16.0515 26.9369 16.6075 26.9375 17.1875V23.75C26.9369 24.33 26.7063 24.886 26.2962 25.2962C25.886 25.7063 25.33 25.9369 24.75 25.9375ZM18.1875 17.1875V23.75H24.7511L24.75 17.1875H18.1875Z" fill="#949494"/>
</svg>
