<svg width="35" height="35" viewBox="0 0 35 35" fill="none" xmlns="http://www.w3.org/2000/svg">
<path d="M20.7812 10.9375H28.4375V13.125H20.7812V10.9375Z" fill="white"/>
<path d="M20.7812 16.4062H28.4375V18.5938H20.7812V16.4062Z" fill="white"/>
<path d="M20.7812 21.875H28.4375V24.0625H20.7812V21.875Z" fill="white"/>
<path d="M6.5625 10.9375H14.2188V13.125H6.5625V10.9375Z" fill="white"/>
<path d="M6.5625 16.4062H14.2188V18.5938H6.5625V16.4062Z" fill="white"/>
<path d="M6.5625 21.875H14.2188V24.0625H6.5625V21.875Z" fill="white"/>
<path d="M30.625 5.46875H4.375C3.79502 5.46933 3.23895 5.69998 2.82884 6.11009C2.41873 6.5202 2.18808 7.07627 2.1875 7.65625V27.3438C2.18808 27.9237 2.41873 28.4798 2.82884 28.8899C3.23895 29.3 3.79502 29.5307 4.375 29.5312H30.625C31.205 29.5307 31.761 29.3 32.1712 28.8899C32.5813 28.4798 32.8119 27.9237 32.8125 27.3438V7.65625C32.8119 7.07627 32.5813 6.5202 32.1712 6.11009C31.761 5.69998 31.205 5.46933 30.625 5.46875ZM4.375 7.65625H16.4062V27.3438H4.375V7.65625ZM18.5938 27.3438V7.65625H30.625V27.3438H18.5938Z" fill="white"/>
</svg>
