<svg width="35" height="35" viewBox="0 0 35 35" fill="none" xmlns="http://www.w3.org/2000/svg">
<path d="M32.8125 31.266L27.6839 26.1385C29.0545 24.3744 29.7012 22.1543 29.4923 19.9301C29.2834 17.706 28.2346 15.6451 26.5595 14.1671C24.8844 12.6891 22.7089 11.9052 20.476 11.9749C18.2432 12.0446 16.1209 12.9628 14.5413 14.5424C12.9616 16.122 12.0435 18.2443 11.9738 20.4772C11.904 22.71 12.688 24.8855 14.166 26.5606C15.644 28.2357 17.7049 29.2845 19.929 29.4934C22.1531 29.7023 24.3733 29.0556 26.1373 27.685L31.2659 32.8125L32.8125 31.266ZM20.7812 27.3438C19.4833 27.3438 18.2145 26.9589 17.1353 26.2378C16.0561 25.5167 15.215 24.4918 14.7183 23.2926C14.2216 22.0935 14.0916 20.774 14.3448 19.501C14.598 18.228 15.2231 17.0587 16.1408 16.1409C17.0586 15.2231 18.228 14.5981 19.501 14.3449C20.774 14.0917 22.0935 14.2216 23.2926 14.7183C24.4917 15.215 25.5167 16.0561 26.2378 17.1353C26.9588 18.2145 27.3437 19.4833 27.3437 20.7813C27.3417 22.5211 26.6497 24.1892 25.4194 25.4194C24.1891 26.6497 22.5211 27.3417 20.7812 27.3438Z" fill="white"/>
<path d="M2.1875 13.125H10.9375V15.3125H2.1875V13.125Z" fill="white"/>
<path d="M2.1875 2.1875H19.6875V4.375H2.1875V2.1875Z" fill="white"/>
<path d="M2.1875 7.65625H19.6875V9.84375H2.1875V7.65625Z" fill="white"/>
</svg>
