<svg width="35" height="35" viewBox="0 0 35 35" fill="none" xmlns="http://www.w3.org/2000/svg">
<path d="M17.5 8.75H32.8125V10.9375H17.5V8.75Z" fill="#000000"/>
<path d="M17.5 24.0625H32.8125V26.25H17.5V24.0625Z" fill="#000000"/>
<path d="M10.9375 15.3125H4.375C3.79502 15.3119 3.23895 15.0813 2.82884 14.6712C2.41873 14.261 2.18808 13.705 2.1875 13.125V6.5625C2.18808 5.98252 2.41873 5.42645 2.82884 5.01634C3.23895 4.60623 3.79502 4.37558 4.375 4.375H10.9375C11.5175 4.37558 12.0735 4.60623 12.4837 5.01634C12.8938 5.42645 13.1244 5.98252 13.125 6.5625V13.125C13.1244 13.705 12.8938 14.261 12.4837 14.6712C12.0735 15.0813 11.5175 15.3119 10.9375 15.3125ZM4.375 6.5625V13.125H10.9386L10.9375 6.5625H4.375Z" fill="#000000"/>
<path d="M10.9375 30.625H4.375C3.79502 30.6244 3.23895 30.3938 2.82884 29.9837C2.41873 29.5735 2.18808 29.0175 2.1875 28.4375V21.875C2.18808 21.295 2.41873 20.739 2.82884 20.3288C3.23895 19.9187 3.79502 19.6881 4.375 19.6875H10.9375C11.5175 19.6881 12.0735 19.9187 12.4837 20.3288C12.8938 20.739 13.1244 21.295 13.125 21.875V28.4375C13.1244 29.0175 12.8938 29.5735 12.4837 29.9837C12.0735 30.3938 11.5175 30.6244 10.9375 30.625ZM4.375 21.875V28.4375H10.9386L10.9375 21.875H4.375Z" fill="#000000"/>
</svg>
