<svg width="35" height="35" viewBox="0 0 35 35" fill="none" xmlns="http://www.w3.org/2000/svg">
<path d="M18.1694 2.42159C17.9753 2.27028 17.7362 2.18811 17.4902 2.18811C17.2441 2.18811 17.005 2.27028 16.8109 2.42159L1.09375 14.6771L2.45328 16.3964L4.375 14.898V28.4375C4.37616 29.0173 4.607 29.5731 5.01698 29.9831C5.42697 30.393 5.98269 30.6239 6.5625 30.625H28.4375C29.0173 30.6239 29.573 30.393 29.983 29.9831C30.393 29.5731 30.6238 29.0173 30.625 28.4375V14.9078L32.5467 16.4063L33.9062 14.6869L18.1694 2.42159ZM19.6875 28.4375H15.3125V19.6875H19.6875V28.4375ZM21.875 28.4375V19.6875C21.8744 19.1075 21.6438 18.5515 21.2337 18.1414C20.8235 17.7313 20.2675 17.5006 19.6875 17.5H15.3125C14.7325 17.5006 14.1765 17.7313 13.7663 18.1414C13.3562 18.5515 13.1256 19.1075 13.125 19.6875V28.4375H6.5625V13.1928L17.5 4.67253L28.4375 13.2038V28.4375H21.875Z" fill="white"/>
</svg>
