<svg width="30" height="30" viewBox="0 0 30 30" fill="none" xmlns="http://www.w3.org/2000/svg">
<path d="M23.3789 4.6875H10.7227C10.5938 4.6875 10.4883 4.79297 10.4883 4.92188V6.79688C10.4883 6.92578 10.5938 7.03125 10.7227 7.03125H16.0312L11.4609 22.9688H6.70898C6.58008 22.9688 6.47461 23.0742 6.47461 23.2031V25.0781C6.47461 25.207 6.58008 25.3125 6.70898 25.3125H19.3652C19.4941 25.3125 19.5996 25.207 19.5996 25.0781V23.2031C19.5996 23.0742 19.4941 22.9688 19.3652 22.9688H13.8984L18.4688 7.03125H23.3789C23.5078 7.03125 23.6133 6.92578 23.6133 6.79688V4.92188C23.6133 4.79297 23.5078 4.6875 23.3789 4.6875Z" fill="white"/>
</svg>
