<svg width="35" height="35" viewBox="0 0 35 35" fill="none" xmlns="http://www.w3.org/2000/svg">
<path d="M31.607 27.057C30.6695 26.2212 29.8487 25.263 29.1667 24.2083C28.4222 22.7525 27.976 21.1626 27.8542 19.532V14.7292C27.8607 12.168 26.9316 9.69256 25.2416 7.76804C23.5516 5.84353 21.217 4.60238 18.6764 4.27779V3.02362C18.6764 2.6794 18.5397 2.34927 18.2963 2.10586C18.0529 1.86245 17.7228 1.72571 17.3785 1.72571C17.0343 1.72571 16.7042 1.86245 16.4608 2.10586C16.2174 2.34927 16.0806 2.6794 16.0806 3.02362V4.29724C13.5628 4.64522 11.2564 5.89387 9.58862 7.81192C7.92083 9.72997 7.00465 12.1874 7.00978 14.7292V19.532C6.88801 21.1626 6.44178 22.7525 5.69728 24.2083C5.0273 25.2606 4.21969 26.2186 3.29589 27.057C3.19218 27.1481 3.10907 27.2602 3.05207 27.3859C2.99508 27.5117 2.96551 27.6481 2.96533 27.7861V29.1083C2.96533 29.3662 3.06776 29.6135 3.25009 29.7958C3.43242 29.9781 3.67971 30.0806 3.93755 30.0806H30.9653C31.2232 30.0806 31.4705 29.9781 31.6528 29.7958C31.8351 29.6135 31.9376 29.3662 31.9376 29.1083V27.7861C31.9374 27.6481 31.9078 27.5117 31.8508 27.3859C31.7938 27.2602 31.7107 27.1481 31.607 27.057ZM4.98755 28.1361C5.89212 27.2623 6.68855 26.2831 7.35978 25.2195C8.29759 23.4612 8.84478 21.5211 8.96394 19.532V14.7292C8.92539 13.5898 9.11651 12.4543 9.52593 11.3902C9.93535 10.3262 10.5547 9.3555 11.3471 8.53583C12.1395 7.71617 13.0887 7.06434 14.1383 6.61917C15.1878 6.17399 16.3162 5.94458 17.4563 5.94458C18.5964 5.94458 19.7248 6.17399 20.7743 6.61917C21.8239 7.06434 22.7731 7.71617 23.5655 8.53583C24.3579 9.3555 24.9773 10.3262 25.3867 11.3902C25.7961 12.4543 25.9872 13.5898 25.9487 14.7292V19.532C26.0678 21.5211 26.615 23.4612 27.5528 25.2195C28.2241 26.2831 29.0205 27.2623 29.9251 28.1361H4.98755Z" fill="white"/>
<path d="M17.5001 33.3278C18.1125 33.3137 18.7002 33.0834 19.1593 32.6778C19.6183 32.2721 19.9191 31.7172 20.0084 31.1111H14.8945C14.9864 31.7336 15.3012 32.3016 15.7805 32.7094C16.2598 33.1171 16.8709 33.3369 17.5001 33.3278V33.3278Z" fill="white"/>
</svg>
