<svg width="35" height="35" viewBox="0 0 35 35" fill="none" xmlns="http://www.w3.org/2000/svg">
<path d="M17.5001 33.3277C18.1125 33.3136 18.7002 33.0834 19.1593 32.6777C19.6183 32.272 19.9191 31.7171 20.0084 31.1111H14.8945C14.9864 31.7336 15.3012 32.3015 15.7805 32.7093C16.2598 33.117 16.8709 33.3368 17.5001 33.3277Z" fill="white"/>
<path d="M31.6068 27.057C30.6692 26.2212 29.8484 25.263 29.1665 24.2083C28.422 22.7525 27.9757 21.1626 27.854 19.532V14.7292C27.85 14.1458 27.798 13.5637 27.6984 12.9889C26.9332 12.8359 26.1978 12.5602 25.5206 12.1722C25.7788 13.0033 25.9099 13.8686 25.9095 14.7389V19.5417C26.0287 21.5309 26.5759 23.4709 27.5137 25.2292C28.1849 26.2928 28.9814 27.272 29.8859 28.1458H4.98731C5.89187 27.272 6.68831 26.2928 7.35953 25.2292C8.29735 23.4709 8.84454 21.5309 8.9637 19.5417V14.7292C8.95858 13.604 9.17546 12.4889 9.60191 11.4477C10.0284 10.4064 10.656 9.45954 11.4489 8.66121C12.2418 7.86289 13.1844 7.22881 14.2227 6.79528C15.261 6.36175 16.3746 6.13728 17.4998 6.13474C19.1465 6.13605 20.7563 6.62304 22.1276 7.53474C21.9764 6.97958 21.8916 6.40847 21.8748 5.83335V5.22085C20.8597 4.72147 19.7691 4.39299 18.647 4.24862V3.02362C18.647 2.6794 18.5103 2.34927 18.2669 2.10586C18.0235 1.86245 17.6933 1.72571 17.3491 1.72571C17.0049 1.72571 16.6748 1.86245 16.4314 2.10586C16.1879 2.34927 16.0512 2.6794 16.0512 3.02362V4.29724C13.5387 4.65166 11.2393 5.9031 9.57739 7.8205C7.91551 9.73791 7.00343 12.1918 7.00953 14.7292V19.532C6.88777 21.1626 6.44154 22.7525 5.69703 24.2083C5.02706 25.2606 4.21944 26.2186 3.29564 27.057C3.19194 27.1481 3.10882 27.2602 3.05183 27.3859C2.99483 27.5117 2.96526 27.6481 2.96509 27.7861V29.1083C2.96509 29.3662 3.06752 29.6135 3.24985 29.7958C3.43217 29.9781 3.67946 30.0806 3.93731 30.0806H30.9651C31.2229 30.0806 31.4702 29.9781 31.6526 29.7958C31.8349 29.6135 31.9373 29.3662 31.9373 29.1083V27.7861C31.9371 27.6481 31.9076 27.5117 31.8506 27.3859C31.7936 27.2602 31.7105 27.1481 31.6068 27.057Z" fill="white"/>
<path d="M29.1665 10.6945C31.8512 10.6945 34.0276 8.51812 34.0276 5.8334C34.0276 3.14868 31.8512 0.97229 29.1665 0.97229C26.4818 0.97229 24.3054 3.14868 24.3054 5.8334C24.3054 8.51812 26.4818 10.6945 29.1665 10.6945Z" fill="#D2D2D2"/>
</svg>
