<svg width="30" height="30" viewBox="0 0 30 30" fill="none" xmlns="http://www.w3.org/2000/svg">
<path d="M4.55 6.17508V9.63341H5.54167V5.04175H4.75L3.375 5.96675L3.76667 6.66675L4.55 6.17508Z" fill="white"/>
<path d="M4.6416 12.35C4.72748 12.342 4.81408 12.3516 4.8961 12.3783C4.97812 12.405 5.05383 12.4481 5.11859 12.505C5.18336 12.562 5.2358 12.6316 5.27272 12.7095C5.30963 12.7875 5.33024 12.8721 5.33327 12.9583C5.33327 13.275 5.15827 13.575 4.60827 14.0167L2.9416 15.325V16.1583H6.3916V15.2333H4.4416L5.27493 14.5917C6.10827 14.0083 6.3416 13.5333 6.3416 12.925C6.33456 12.7172 6.28509 12.513 6.19624 12.325C6.10739 12.137 5.98103 11.9692 5.82493 11.8318C5.66884 11.6945 5.4863 11.5905 5.28853 11.5262C5.09077 11.462 4.88196 11.4389 4.67493 11.4583C4.32764 11.4563 3.98483 11.5369 3.67477 11.6934C3.36471 11.8498 3.09628 12.0778 2.8916 12.3583L3.52493 12.9667C3.65218 12.786 3.81882 12.6366 4.01227 12.5298C4.20572 12.4229 4.42091 12.3615 4.6416 12.35Z" fill="white"/>
<path d="M5.46654 20.5333C5.70309 20.4742 5.91331 20.3382 6.06415 20.1466C6.21499 19.955 6.29791 19.7188 6.29987 19.475C6.29987 18.75 5.64987 18.2166 4.6332 18.2166C4.29694 18.2108 3.96389 18.283 3.66024 18.4276C3.35659 18.5722 3.09061 18.7852 2.8832 19.05L3.4582 19.65C3.59128 19.4901 3.75651 19.36 3.94314 19.2681C4.12978 19.1762 4.33366 19.1246 4.54154 19.1166C4.99154 19.1166 5.3082 19.3333 5.3082 19.6666C5.3082 20 5.0082 20.1833 4.47487 20.1833H3.99154V21.0166H4.52487C5.14154 21.0166 5.41654 21.1916 5.41654 21.5416C5.41654 21.8916 5.12487 22.1083 4.5832 22.1083C4.35406 22.1065 4.12775 22.0575 3.91841 21.9643C3.70908 21.8711 3.5212 21.7357 3.36654 21.5666L2.7832 22.2166C3.01545 22.4719 3.30052 22.6734 3.61857 22.8072C3.93662 22.9411 4.28002 23.004 4.62487 22.9916C5.69987 22.9916 6.39987 22.4166 6.39987 21.625C6.39921 21.3618 6.30496 21.1075 6.13396 20.9075C5.96296 20.7075 5.72638 20.5749 5.46654 20.5333Z" fill="white"/>
<path d="M27.0168 7.50008C27.0168 7.27907 26.929 7.06711 26.7727 6.91083C26.6165 6.75455 26.4045 6.66675 26.1835 6.66675H8.3335V8.33341H26.1835C26.4045 8.33341 26.6165 8.24562 26.7727 8.08934C26.929 7.93306 27.0168 7.7211 27.0168 7.50008Z" fill="white"/>
<path d="M26.1835 13.3333H8.3335V14.9999H26.1835C26.4045 14.9999 26.6165 14.9121 26.7727 14.7558C26.929 14.5996 27.0168 14.3876 27.0168 14.1666C27.0168 13.9456 26.929 13.7336 26.7727 13.5773C26.6165 13.421 26.4045 13.3333 26.1835 13.3333Z" fill="white"/>
<path d="M26.1835 20H8.3335V21.6667H26.1835C26.4045 21.6667 26.6165 21.5789 26.7727 21.4226C26.929 21.2663 27.0168 21.0543 27.0168 20.8333C27.0168 20.6123 26.929 20.4004 26.7727 20.2441C26.6165 20.0878 26.4045 20 26.1835 20Z" fill="white"/>
</svg>
