<svg width="30" height="30" viewBox="0 0 30 30" fill="none" xmlns="http://www.w3.org/2000/svg">
<path d="M26.4844 6.73828H11.9531C11.8242 6.73828 11.7188 6.63281 11.7188 6.50391V4.86328C11.7188 4.73438 11.8242 4.62891 11.9531 4.62891H26.4844C26.6133 4.62891 26.7188 4.73438 26.7188 4.86328V6.50391C26.7188 6.63281 26.6133 6.73828 26.4844 6.73828ZM26.4844 19.1602H11.9531C11.8242 19.1602 11.7188 19.0547 11.7188 18.9258V17.2852C11.7188 17.1562 11.8242 17.0508 11.9531 17.0508H26.4844C26.6133 17.0508 26.7188 17.1562 26.7188 17.2852V18.9258C26.7188 19.0547 26.6133 19.1602 26.4844 19.1602ZM3.51562 23.2617H26.4844C26.6133 23.2617 26.7188 23.3672 26.7188 23.4961V25.1367C26.7188 25.2656 26.6133 25.3711 26.4844 25.3711H3.51562C3.38672 25.3711 3.28125 25.2656 3.28125 25.1367V23.4961C3.28125 23.3672 3.38672 23.2617 3.51562 23.2617ZM3.51562 10.8398H26.4844C26.6133 10.8398 26.7188 10.9453 26.7188 11.0742V12.7148C26.7188 12.8438 26.6133 12.9492 26.4844 12.9492H3.51562C3.38672 12.9492 3.28125 12.8438 3.28125 12.7148V11.0742C3.28125 10.9453 3.38672 10.8398 3.51562 10.8398Z" fill="white"/>
</svg>
