<svg width="30" height="30" viewBox="0 0 30 30" fill="none" xmlns="http://www.w3.org/2000/svg">
<path d="M27.0168 7.50008C27.0168 7.27907 26.929 7.06711 26.7727 6.91083C26.6165 6.75455 26.4045 6.66675 26.1835 6.66675H8.3335V8.33341H26.1835C26.4045 8.33341 26.6165 8.24562 26.7727 8.08934C26.929 7.93306 27.0168 7.7211 27.0168 7.50008Z" fill="white"/>
<path d="M26.1835 13.3333H8.3335V14.9999H26.1835C26.4045 14.9999 26.6165 14.9121 26.7727 14.7558C26.929 14.5996 27.0168 14.3876 27.0168 14.1666C27.0168 13.9456 26.929 13.7336 26.7727 13.5773C26.6165 13.421 26.4045 13.3333 26.1835 13.3333Z" fill="white"/>
<path d="M26.1835 20H8.3335V21.6667H26.1835C26.4045 21.6667 26.6165 21.5789 26.7727 21.4226C26.929 21.2663 27.0168 21.0543 27.0168 20.8333C27.0168 20.6123 26.929 20.4004 26.7727 20.2441C26.6165 20.0878 26.4045 20 26.1835 20Z" fill="white"/>
<rect x="2" y="5" width="4" height="4" fill="white"/>
<rect x="2" y="12" width="4" height="4" fill="white"/>
<rect x="2" y="19" width="4" height="4" fill="white"/>
</svg>
