<svg width="30" height="30" viewBox="0 0 30 30" fill="none" xmlns="http://www.w3.org/2000/svg">
<path d="M24.1406 23.5547H5.85938C5.73047 23.5547 5.625 23.6543 5.625 23.7773V25.5586C5.625 25.6816 5.73047 25.7812 5.85938 25.7812H24.1406C24.2695 25.7812 24.375 25.6816 24.375 25.5586V23.7773C24.375 23.6543 24.2695 23.5547 24.1406 23.5547ZM15 21.3281C17.0332 21.3281 18.9434 20.5342 20.3848 19.0957C21.8262 17.6572 22.6172 15.7441 22.6172 13.7109V4.57031C22.6172 4.37695 22.459 4.21875 22.2656 4.21875H20.5078C20.3145 4.21875 20.1562 4.37695 20.1562 4.57031V13.7109C20.1562 16.5527 17.8418 18.8672 15 18.8672C12.1582 18.8672 9.84375 16.5527 9.84375 13.7109V4.57031C9.84375 4.37695 9.68555 4.21875 9.49219 4.21875H7.73438C7.54102 4.21875 7.38281 4.37695 7.38281 4.57031V13.7109C7.38281 15.7441 8.17676 17.6543 9.61523 19.0957C11.0537 20.5371 12.9668 21.3281 15 21.3281Z" fill="white"/>
</svg>
