<svg width="70" height="70" viewBox="0 0 70 70" fill="none" xmlns="http://www.w3.org/2000/svg">
<path d="M70 63.4375H0L6.23438 13.125H63.7656L70 63.4375Z" fill="#89664C"/>
<path d="M28.6562 9.1875C22.3125 9.1875 10.5 11.2656 6.67188 10.0625C6.67188 10.0625 7.65625 31.6094 2.29688 61.9062C9.84375 61.3594 19.9062 57.0938 27.3438 57.0938C34.8906 57.0938 34.8906 61.9062 34.8906 61.9062V14.5469C35.1094 14.5469 35 9.1875 28.6562 9.1875Z" fill="#B0BDC6"/>
<path d="M28.7656 8.42187C22.4219 8.42187 12.6875 10.3906 9.73437 6.5625C9.73437 6.5625 10.7188 30.9531 4.15625 58.1875C6.5625 61.5781 19.4688 56.9844 27.0156 56.9844C34.5625 56.9844 35 61.9062 35 61.9062V13.7813C35.1094 13.7813 35.1094 8.42187 28.7656 8.42187Z" fill="#E1EBEF"/>
<path d="M27.4531 57.0938C19.9062 57.0938 6.67188 61.9062 2.40625 61.9062H35.1094C35.1094 61.9062 35 57.0938 27.4531 57.0938Z" fill="#94989B"/>
<path d="M12.9062 15.5312L13.0156 14.6562C14 14.6562 15.8594 14.3281 17.9375 13.8906C20.7812 13.3437 24.0625 12.6875 26.6875 12.6875C30.1875 12.6875 31.2812 13.4531 31.5 13.5625L31.1719 13.8906L30.8438 14.2187C30.8438 14.2187 29.75 13.5625 26.6875 13.5625C24.1719 13.5625 21 14.2187 18.1562 14.7656C15.9688 15.2031 14.1094 15.5312 12.9062 15.5312Z" fill="#7D8B91"/>
<path d="M12.4688 20.2344L12.5781 19.25C13.6719 19.25 15.5313 18.9219 17.6094 18.4844C20.5625 17.9375 23.8438 17.2812 26.4688 17.2812C29.9688 17.2812 31.1719 18.0469 31.2812 18.1563L31.0625 18.5937L30.7344 19.0312C30.7344 19.0312 29.6406 18.2656 26.4688 18.2656C23.8438 18.2656 20.6719 18.9219 17.7188 19.4687C15.5313 19.9062 13.6719 20.2344 12.4688 20.2344Z" fill="#7D8B91"/>
<path d="M12.0312 25.1562L12.1406 24.1719C13.2344 24.1719 15.0938 23.7344 17.2812 23.2969C20.2344 22.6406 23.625 21.9844 26.3594 21.9844C29.9688 21.9844 31.1719 22.8594 31.2812 22.9687L30.9531 23.4062L30.625 23.8437C30.625 23.8437 29.5312 23.0781 26.25 23.0781C23.625 23.0781 20.3438 23.7344 17.3906 24.3906C15.2031 24.8281 13.2344 25.1562 12.0312 25.1562Z" fill="#7D8B91"/>
<path d="M11.5938 30.2969L11.7031 29.2031C12.7969 29.2031 14.7656 28.7656 16.9531 28.3281C20.0156 27.6719 23.4062 27.0156 26.25 27.0156C29.9688 27.0156 31.1719 27.8906 31.2812 28L30.8438 28.4375L30.625 28.875C30.625 28.875 29.5312 28.1094 26.1406 28.1094C23.4062 28.1094 20.0156 28.7656 17.0625 29.4219C14.7656 29.8594 12.7969 30.2969 11.5938 30.2969Z" fill="#7D8B91"/>
<path d="M11.0469 35.6562L11.1562 34.5625C12.25 34.5625 14.2188 34.125 16.5156 33.6875C19.5781 33.0312 23.0781 32.2656 25.9219 32.2656C29.6406 32.2656 30.9531 33.1406 31.0625 33.25L30.7344 33.6875L30.4062 34.125C30.4062 34.125 29.3125 33.3594 25.8125 33.3594C23.0781 33.3594 19.5781 34.125 16.5156 34.7812C14.3281 35.2187 12.25 35.6562 11.0469 35.6562Z" fill="#7D8B91"/>
<path d="M10.5 41.2344L10.6094 40.1406C11.7031 40.1406 13.7812 39.7031 16.0781 39.1562C19.25 38.5 22.8594 37.7344 25.7031 37.7344C29.5312 37.7344 30.8437 38.7188 30.9531 38.8281L30.625 39.2656L30.2969 39.7031C30.2969 39.7031 29.0938 38.8281 25.5937 38.8281C22.75 38.8281 19.25 39.5937 16.0781 40.25C13.8906 40.7969 11.8125 41.2344 10.5 41.2344Z" fill="#7D8B91"/>
<path d="M9.95312 47.0313L10.0625 45.8281C11.2656 45.8281 13.2344 45.3906 15.6406 44.8438C18.9219 44.0781 22.5312 43.3125 25.4844 43.3125C29.4219 43.3125 30.7344 44.2969 30.8438 44.4062L30.625 44.9531L30.2969 45.3906C30.2969 45.3906 29.0937 44.5156 25.4844 44.5156C22.6406 44.5156 19.0312 45.2812 15.75 46.0469C13.4531 46.5938 11.2656 47.0313 9.95312 47.0313Z" fill="#7D8B91"/>
<path d="M9.40625 53.1562L9.51562 51.9531C10.7187 51.9531 12.7969 51.5156 15.2031 50.9688C18.4844 50.2031 22.3125 49.3281 25.2656 49.3281C29.3125 49.3281 30.625 50.4219 30.7344 50.5313L30.4062 50.9688L30.1875 51.4063C30.1875 51.4063 28.9844 50.4219 25.2656 50.4219C22.3125 50.4219 18.5938 51.2969 15.3125 52.0625C12.9062 52.6094 10.7188 53.1562 9.40625 53.1562Z" fill="#7D8B91"/>
<path d="M41.3437 9.1875C47.6875 9.1875 59.5 11.2656 63.3281 10.0625C63.3281 10.0625 62.3437 31.6094 67.7031 61.9062C60.1562 61.3594 50.0937 57.0938 42.6562 57.0938C35.1094 57.0938 35.1094 61.9062 35.1094 61.9062V14.5469C35 14.5469 35 9.1875 41.3437 9.1875Z" fill="#B0BDC6"/>
<path d="M41.2344 8.42187C47.5781 8.42187 57.3125 10.3906 60.2656 6.5625C60.2656 6.5625 59.2812 30.9531 65.8438 58.1875C63.4375 61.5781 50.5312 56.9844 42.9844 56.9844C35.4375 56.9844 35 61.9062 35 61.9062V13.7813C35 13.7813 35 8.42187 41.2344 8.42187Z" fill="#D9E3E8"/>
<path d="M42.5469 57.0938C50.0938 57.0938 63.3281 61.9062 67.5938 61.9062H35C35 61.9062 35 57.0938 42.5469 57.0938Z" fill="#94989B"/>
<path d="M57.0938 15.5312L56.9844 14.6562C56 14.6562 54.1406 14.3281 52.0625 13.8906C49.2187 13.3437 45.9375 12.6875 43.3125 12.6875C39.8125 12.6875 38.7188 13.4531 38.5 13.5625L38.8281 13.8906L39.1562 14.2187C39.1562 14.2187 40.25 13.5625 43.3125 13.5625C45.8281 13.5625 49 14.2187 51.8438 14.7656C54.1406 15.2031 56 15.5312 57.0938 15.5312Z" fill="#7D8B91"/>
<path d="M57.5312 20.2344L57.4219 19.25C56.3281 19.25 54.4688 18.9219 52.3906 18.4844C49.4375 17.9375 46.1562 17.2812 43.5312 17.2812C40.0312 17.2812 38.8281 18.0469 38.7188 18.1563L39.0469 18.4844L39.375 18.9219C39.375 18.9219 40.4687 18.1563 43.6406 18.1563C46.2656 18.1563 49.4375 18.8125 52.3906 19.3594C54.4688 19.9063 56.3281 20.2344 57.5312 20.2344Z" fill="#7D8B91"/>
<path d="M57.9687 25.1562L57.8594 24.1719C56.7656 24.1719 54.9062 23.7344 52.7187 23.2969C49.7656 22.6406 46.375 21.9844 43.6406 21.9844C40.0312 21.9844 38.8281 22.8594 38.7188 22.9687L39.0469 23.4062L39.375 23.8437C39.375 23.8437 40.4687 23.0781 43.75 23.0781C46.375 23.0781 49.6562 23.7344 52.6094 24.3906C54.9062 24.8281 56.7656 25.1562 57.9687 25.1562Z" fill="#7D8B91"/>
<path d="M58.5156 30.2969L58.4063 29.2031C57.3125 29.2031 55.3437 28.7656 53.1562 28.3281C50.0937 27.6719 46.7031 27.0156 43.8594 27.0156C40.1406 27.0156 38.9375 27.8906 38.8281 28L39.1562 28.4375L39.4844 28.875C39.4844 28.875 40.5781 28.1094 43.9688 28.1094C46.7031 28.1094 50.0938 28.7656 53.0469 29.4219C55.2344 29.8594 57.3125 30.2969 58.5156 30.2969Z" fill="#7D8B91"/>
<path d="M58.9531 35.6562L58.8438 34.5625C57.75 34.5625 55.7813 34.125 53.4844 33.6875C50.4219 33.0312 46.9219 32.2656 44.0781 32.2656C40.3594 32.2656 39.0469 33.1406 38.9375 33.25L39.2656 33.6875L39.5938 34.125C39.5938 34.125 40.6875 33.3594 44.1875 33.3594C46.9219 33.3594 50.4219 34.125 53.4844 34.7812C55.6719 35.2187 57.75 35.6562 58.9531 35.6562Z" fill="#7D8B91"/>
<path d="M59.5 41.2344L59.3906 40.1406C58.2969 40.1406 56.2187 39.7031 53.9219 39.1562C50.75 38.5 47.1406 37.7344 44.2969 37.7344C40.4687 37.7344 39.1562 38.7188 39.0469 38.8281L39.375 39.2656L39.7031 39.7031C39.7031 39.7031 40.9062 38.8281 44.4062 38.8281C47.25 38.8281 50.75 39.5937 53.9219 40.25C56.1094 40.7969 58.1875 41.2344 59.5 41.2344Z" fill="#7D8B91"/>
<path d="M60.0469 47.0313L59.9375 45.8281C58.7344 45.8281 56.7656 45.3906 54.3594 44.8438C51.0781 44.0781 47.4688 43.3125 44.5156 43.3125C40.5781 43.3125 39.2656 44.2969 39.1562 44.4062L39.4844 44.8438L39.8125 45.2813C39.8125 45.2813 41.0156 44.4062 44.625 44.4062C47.4688 44.4062 51.0781 45.1719 54.3594 45.9375C56.6563 46.5938 58.7344 47.0313 60.0469 47.0313Z" fill="#7D8B91"/>
<path d="M60.5938 53.1562L60.4844 51.9531C59.2812 51.9531 57.2031 51.5156 54.7969 50.9688C51.5156 50.2031 47.6875 49.3281 44.7344 49.3281C40.6875 49.3281 39.375 50.4219 39.2656 50.5313L39.5937 50.9688L39.9219 51.5156C39.9219 51.5156 41.125 50.5313 44.8437 50.5313C47.7969 50.5313 51.5156 51.4063 54.7969 52.1719C57.0937 52.6094 59.2812 53.1562 60.5938 53.1562Z" fill="#7D8B91"/>
</svg>
